<svg xmlns="http://www.w3.org/2000/svg" xmlns:xlink="http://www.w3.org/1999/xlink" width="21.001" height="21.002" viewBox="0 0 21.001 21.002">
  <defs>
    <clipPath id="clip-path">
      <path id="Icon" d="M15.5,21H3.494a3.971,3.971,0,0,1-2.1-.364,2.467,2.467,0,0,1-1.03-1.031A3.969,3.969,0,0,1,0,17.508V5.5A3.969,3.969,0,0,1,.364,3.4a2.466,2.466,0,0,1,1.03-1.03A3.969,3.969,0,0,1,3.494,2H15.5c.289,0,.541.007.769.023L5.721,12.557A5.91,5.91,0,0,1,7.3,13.705a5.882,5.882,0,0,1,1.147,1.573L18.974,4.729c.017.225.025.476.025.766V17.508a3.969,3.969,0,0,1-.365,2.1A2.471,2.471,0,0,1,17.6,20.638,3.966,3.966,0,0,1,15.5,21ZM4.657,13.62h0l-.282.282a1.581,1.581,0,0,0-.367.69l-.6,3,3-.6a1.572,1.572,0,0,0,.689-.367l.283-.283-.007-.022c0-.015-.01-.031-.015-.046a4.125,4.125,0,0,0-1.028-1.607,4.128,4.128,0,0,0-1.607-1.028l-.068-.022ZM18.975,4.728v0a2.974,2.974,0,0,0-.341-1.33A2.466,2.466,0,0,0,17.6,2.366a2.98,2.98,0,0,0-1.331-.342L17.747.553a1.91,1.91,0,0,1,2.694.006,1.908,1.908,0,0,1,.007,2.694L18.977,4.726Z" transform="translate(0.572 0.998)" fill="#1993d1"/>
    </clipPath>
  </defs>
  <g id="_Glyphs_Tab_Bar_Compose" data-name="_Glyphs / Tab Bar / Compose" transform="translate(-0.572 -0.998)">
    <path id="Icon-2" data-name="Icon" d="M15.5,21H3.494a3.971,3.971,0,0,1-2.1-.364,2.467,2.467,0,0,1-1.03-1.031A3.969,3.969,0,0,1,0,17.508V5.5A3.969,3.969,0,0,1,.364,3.4a2.466,2.466,0,0,1,1.03-1.03A3.969,3.969,0,0,1,3.494,2H15.5c.289,0,.541.007.769.023L5.721,12.557A5.91,5.91,0,0,1,7.3,13.705a5.882,5.882,0,0,1,1.147,1.573L18.974,4.729c.017.225.025.476.025.766V17.508a3.969,3.969,0,0,1-.365,2.1A2.471,2.471,0,0,1,17.6,20.638,3.966,3.966,0,0,1,15.5,21ZM4.657,13.62h0l-.282.282a1.581,1.581,0,0,0-.367.69l-.6,3,3-.6a1.572,1.572,0,0,0,.689-.367l.283-.283-.007-.022c0-.015-.01-.031-.015-.046a4.125,4.125,0,0,0-1.028-1.607,4.128,4.128,0,0,0-1.607-1.028l-.068-.022ZM18.975,4.728v0a2.974,2.974,0,0,0-.341-1.33A2.466,2.466,0,0,0,17.6,2.366a2.98,2.98,0,0,0-1.331-.342L17.747.553a1.91,1.91,0,0,1,2.694.006,1.908,1.908,0,0,1,.007,2.694L18.977,4.726Z" transform="translate(0.572 0.998)" fill="#1993d1"/>
  </g>
</svg>
