<svg id="Layer_1" data-name="Layer 1" xmlns="http://www.w3.org/2000/svg" viewBox="0 0 510.95 511"><defs><style>.cls-1{fill:#fff;}</style></defs><title>home-filled</title><path class="cls-1" d="M498.2,287.77a46.76,46.76,0,0,1-33.27,13.78h-7.7V455A55.11,55.11,0,0,1,402.17,510H320.61a15,15,0,0,1-15-15V374.77a25.14,25.14,0,0,0-25.11-25.12H232.42a25.15,25.15,0,0,0-25.12,25.12V495a15,15,0,0,1-15,15H110.78A55.11,55.11,0,0,1,55.72,455V301.55H47.41a14.08,14.08,0,0,1-1.45-.07,47,47,0,0,1-31.3-80.15c.06-.07.14-.14.21-.21L223.21,12.78a47,47,0,0,1,66.53,0L498.19,221.22l0,0A47.12,47.12,0,0,1,498.2,287.77Z" transform="translate(-0.99 1)"/></svg>