<svg id="Layer_1" data-name="Layer 1" xmlns="http://www.w3.org/2000/svg" viewBox="0 0 512 512"><defs><style>.cls-1{fill:#fff;}</style></defs><title>settings-filled</title><path class="cls-1" d="M464.87,192.8H454a207.69,207.69,0,0,0-13.33-32.1l7.7-7.69a47.13,47.13,0,0,0,0-66.67L425.67,63.63a47.14,47.14,0,0,0-66.67,0l-7.7,7.71A206.71,206.71,0,0,0,319.2,58V47.13A47.18,47.18,0,0,0,272.07,0H239.93A47.18,47.18,0,0,0,192.8,47.13V58a206.71,206.71,0,0,0-32.1,13.33L153,63.63a47.14,47.14,0,0,0-66.67,0L63.63,86.34a47.13,47.13,0,0,0,0,66.66l7.71,7.7A207.69,207.69,0,0,0,58,192.8H47.13A47.19,47.19,0,0,0,0,239.93v32.14A47.19,47.19,0,0,0,47.13,319.2H58a206.71,206.71,0,0,0,13.33,32.1l-7.7,7.7a47.12,47.12,0,0,0,0,66.66l22.71,22.71a47.14,47.14,0,0,0,66.67,0l7.7-7.71A206.71,206.71,0,0,0,192.8,454v10.87A47.18,47.18,0,0,0,239.93,512h32.14a47.18,47.18,0,0,0,47.13-47.13V454a207.65,207.65,0,0,0,32.1-13.32l7.69,7.69a47.13,47.13,0,0,0,66.67,0l22.71-22.71a47.14,47.14,0,0,0,0-66.67l-7.71-7.7A207.69,207.69,0,0,0,454,319.2h10.87A47.18,47.18,0,0,0,512,272.07V239.93A47.18,47.18,0,0,0,464.87,192.8ZM337.4,256A81.4,81.4,0,1,1,256,174.6,81.5,81.5,0,0,1,337.4,256Z" transform="translate(0 0)"/></svg>